<?xml version="1.0" standalone="no"?>
<!DOCTYPE svg PUBLIC "-//W3C//DTD SVG 20010904//EN"
 "http://www.w3.org/TR/2001/REC-SVG-20010904/DTD/svg10.dtd">
<svg version="1.0" xmlns="http://www.w3.org/2000/svg"
 width="286.000000pt" height="320.000000pt" viewBox="0 0 286.000000 320.000000"
 preserveAspectRatio="xMidYMid meet">
<metadata>
Created by potrace 1.16, written by Peter Selinger 2001-2019
</metadata>
<g transform="translate(0.000000,320.000000) scale(0.100000,-0.100000)"
fill="#000000" stroke="none">
<path d="M1215 3144 c-258 -39 -468 -120 -685 -265 -132 -87 -334 -291 -422
-424 -121 -184 -108 -78 -108 -902 l0 -718 50 -84 c75 -126 152 -225 259 -332
160 -159 329 -271 528 -349 118 -47 145 -49 178 -15 25 24 25 27 25 193 l0
170 -37 -9 c-57 -13 -190 -10 -265 5 -131 28 -181 71 -249 213 -50 105 -92
156 -187 231 -23 18 -42 39 -42 46 0 36 88 34 165 -3 66 -32 112 -76 173 -166
80 -121 183 -163 333 -135 97 18 105 24 128 99 11 37 34 86 51 109 16 23 30
43 30 45 0 2 -17 4 -37 5 -68 5 -213 41 -276 69 -210 92 -320 220 -378 439
-31 115 -38 329 -14 427 20 83 58 164 109 231 l36 47 -16 56 c-29 100 -3 335
40 366 32 23 235 -46 361 -122 l68 -42 106 23 c156 33 440 32 592 -1 l106 -23
67 42 c118 74 297 139 349 126 50 -12 84 -244 53 -364 l-16 -63 39 -52 c45
-60 71 -110 97 -187 26 -76 27 -332 2 -435 -65 -264 -202 -411 -458 -493 -52
-17 -213 -52 -237 -52 -3 0 7 -16 22 -36 64 -84 69 -110 75 -440 5 -328 6
-329 64 -339 61 -12 268 80 437 194 185 123 365 314 478 506 l51 86 0 738 0
738 -56 89 c-168 268 -391 473 -659 607 -284 141 -630 197 -930 151z"/>
</g>
</svg>